<svg version="1.1"
	 xmlns="http://www.w3.org/2000/svg" xmlns:xlink="http://www.w3.org/1999/xlink" xmlns:a="http://ns.adobe.com/AdobeSVGViewerExtensions/3.0/"
	 x="0px" y="0px" viewBox="0 0 1280 265" enable-background="new 0 0 1280 265" xml:space="preserve"
	>
<g>
	<g>
		<polyline fill="#131418" points="1119.8,61.3 1173.7,61.3 1173.7,115.2 1119.8,115.2 		"/>
		<rect x="1173.1" y="114.5" fill="#131418" width="53.9" height="53.9"/>
	</g>
	<rect x="853.4" y="114.5" fill="#131418" width="53.9" height="53.9"/>
	<polygon fill="#131418" points="1221.4,212 1220.6,212 1168.4,212 1167.6,212 1114.6,212 1061.6,212 1060.7,212 1008.6,212 
		1007.7,212 955.6,212 954.7,212 902.6,212 901.7,212 849.6,212 848.7,212 796.6,212 795.7,212 743.7,212 742.7,212 690.7,212 
		689.9,212 637.7,212 636.9,212 584.7,212 583.9,212 531.7,212 530.9,212 478.7,212 477.9,212 425.7,212 424.9,212 372,212 372,159 
		319,159 319,106 265,106 265,159 213,159 213,106 160,106 160,53 107,53 107,0 53,0 53,53 0,53 0,105.5 0,106.4 0,158.5 0,159.4 
		0,211.5 0,212.4 0,265 53,265 53.9,265 106,265 106.9,265 159,265 159.9,265 212,265 212.9,265 265,265 265.9,265 318,265 
		318.9,265 371.9,265 424.9,265 425.7,265 477.9,265 478.7,265 530.9,265 531.7,265 583.9,265 584.7,265 636.9,265 637.7,265 
		689.9,265 690.7,265 742.7,265 743.7,265 795.7,265 796.6,265 848.7,265 849.6,265 901.7,265 902.6,265 954.7,265 955.6,265 
		1007.7,265 1008.6,265 1060.7,265 1061.6,265 1114.6,265 1167.6,265 1168.4,265 1220.6,265 1221.4,265 1280,265 1280,212 	"/>
</g>
</svg>
