
<svg version="1.1" class="trunk" xmlns="http://www.w3.org/2000/svg" xmlns:xlink="http://www.w3.org/1999/xlink" x="0px" y="0px"
	 viewBox="0 0 345.6 98.8" enable-background="new 0 0 345.6 98.8" xml:space="preserve">
<g>
	<g>
		<rect x="47" y="0" fill="#FFFFFF" width="249.5" height="23.2"/>
		<path fill="#6B593A" d="M309.6,10.6l-34.2-1.2c0,0-34.7,67.4-45.4,66.6s-28.6-8-28.6-8s-7.7-12.1-12.7-12.1s-46.8,0-46.8,0
			s-16.8,4.8-31.5,3.1c-14.8-1.6-45.1-34.7-52.1-46.5L28.7,6.5L0,15.9v5.7l41.4-0.8l2.5,2.3l4.1-1.7l-10.2,6.5l15.6,2.2l41.8,43.7
			h3.7c0,0-30.4-0.8-37.3,6.2c0,0,18.5-3.1,21.3-0.2s15.2,4,15.2,4s11.5-3.3,12.3-6.2s26.2,0.4,26.2,0.4l45.9-3.3
			c0,0,13.1,16,22.6,17.2c9.4,1.2,39.8,6.8,39.8,6.8S339.4,18,345.6,15.9L309.6,10.6z"/>
	</g>
	<path fill="#2D6D38" d="M24.4,59c0,0,0.5,15.5,25.9,20.6c0,0,3-1.9,8.3-1c0,0-3-3.3-2.5-6.4C56.7,69.2,43.1,55.6,24.4,59z"/>
</g>
</svg>
